<mxfile host="app.diagrams.net" modified="2022-02-14T13:53:06.220Z" agent="5.0 (Macintosh; Intel Mac OS X 10_15_7) AppleWebKit/537.36 (KHTML, like Gecko) Chrome/98.0.4758.80 Safari/537.36" etag="rgR1EKeP-4jL8EG13qLC" version="15.1.1" type="github">
  <diagram id="R2lEEEUBdFMjLlhIrx00" name="Page-1">
    <mxGraphModel dx="1346" dy="701" grid="1" gridSize="10" guides="1" tooltips="1" connect="1" arrows="1" fold="1" page="1" pageScale="1" pageWidth="850" pageHeight="1100" math="0" shadow="0" extFonts="Permanent Marker^https://fonts.googleapis.com/css?family=Permanent+Marker">
      <root>
        <mxCell id="0" />
        <mxCell id="1" parent="0" />
        <UserObject label="Place a note" lucidchartObjectId="RHrTPbx0MTkG" id="jU1H_DuaYMKhVgp7lR0j-24">
          <mxCell style="html=1;overflow=block;blockSpacing=1;whiteSpace=wrap;ellipse;whiteSpace=wrap;fontSize=16.7;fontColor=#333333;spacing=3.8;strokeColor=#5e5e5e;strokeOpacity=100;rounded=1;absoluteArcSize=1;arcSize=9;strokeWidth=2.3;" vertex="1" parent="1">
            <mxGeometry x="1140" y="735" width="120" height="60" as="geometry" />
          </mxCell>
        </UserObject>
        <mxCell id="jU1H_DuaYMKhVgp7lR0j-64" value="&lt;span style=&quot;font-size: 18px&quot;&gt;Customer&lt;/span&gt;" style="rounded=0;whiteSpace=wrap;html=1;" vertex="1" parent="1">
          <mxGeometry x="160" y="180" width="120" height="60" as="geometry" />
        </mxCell>
        <mxCell id="jU1H_DuaYMKhVgp7lR0j-65" value="&lt;span style=&quot;font-size: 18px&quot;&gt;Supplier ID&lt;/span&gt;" style="ellipse;whiteSpace=wrap;html=1;" vertex="1" parent="1">
          <mxGeometry x="1150" y="87.5" width="90" height="50" as="geometry" />
        </mxCell>
        <mxCell id="jU1H_DuaYMKhVgp7lR0j-66" value="&lt;font style=&quot;font-size: 18px&quot;&gt;Address&lt;/font&gt;" style="ellipse;whiteSpace=wrap;html=1;" vertex="1" parent="1">
          <mxGeometry x="886.82" y="795" width="90" height="50" as="geometry" />
        </mxCell>
        <mxCell id="jU1H_DuaYMKhVgp7lR0j-67" value="&lt;font style=&quot;font-size: 18px&quot;&gt;Address&lt;/font&gt;" style="ellipse;whiteSpace=wrap;html=1;" vertex="1" parent="1">
          <mxGeometry x="786.8199999999999" y="745" width="90" height="50" as="geometry" />
        </mxCell>
        <mxCell id="jU1H_DuaYMKhVgp7lR0j-68" value="&lt;font style=&quot;font-size: 18px&quot;&gt;Pick-up&lt;/font&gt;" style="ellipse;whiteSpace=wrap;html=1;" vertex="1" parent="1">
          <mxGeometry x="125" y="517.3199999999999" width="90" height="50" as="geometry" />
        </mxCell>
        <mxCell id="jU1H_DuaYMKhVgp7lR0j-69" value="&lt;font style=&quot;font-size: 18px&quot;&gt;Date&lt;br&gt;&lt;/font&gt;" style="ellipse;whiteSpace=wrap;html=1;" vertex="1" parent="1">
          <mxGeometry x="70" y="585" width="90" height="50" as="geometry" />
        </mxCell>
        <mxCell id="jU1H_DuaYMKhVgp7lR0j-70" value="&lt;font style=&quot;font-size: 18px&quot;&gt;Deliver&lt;/font&gt;" style="ellipse;whiteSpace=wrap;html=1;" vertex="1" parent="1">
          <mxGeometry y="520" width="90" height="50" as="geometry" />
        </mxCell>
        <mxCell id="jU1H_DuaYMKhVgp7lR0j-71" value="&lt;font style=&quot;font-size: 18px&quot;&gt;Descriptions&lt;/font&gt;" style="ellipse;whiteSpace=wrap;html=1;" vertex="1" parent="1">
          <mxGeometry x="1200" y="480" width="110" height="45" as="geometry" />
        </mxCell>
        <mxCell id="jU1H_DuaYMKhVgp7lR0j-72" value="&lt;span style=&quot;font-size: 18px&quot;&gt;Unit price&lt;br&gt;&lt;/span&gt;" style="ellipse;whiteSpace=wrap;html=1;" vertex="1" parent="1">
          <mxGeometry x="1200" y="414.82" width="90" height="50" as="geometry" />
        </mxCell>
        <mxCell id="jU1H_DuaYMKhVgp7lR0j-73" value="&lt;font style=&quot;font-size: 18px&quot;&gt;Address&lt;/font&gt;" style="ellipse;whiteSpace=wrap;html=1;" vertex="1" parent="1">
          <mxGeometry x="840" y="610" width="90" height="50" as="geometry" />
        </mxCell>
        <mxCell id="jU1H_DuaYMKhVgp7lR0j-74" value="&lt;font style=&quot;font-size: 18px&quot;&gt;Order ID&lt;br&gt;&lt;/font&gt;" style="ellipse;whiteSpace=wrap;html=1;" vertex="1" parent="1">
          <mxGeometry x="290" y="685" width="90" height="50" as="geometry" />
        </mxCell>
        <mxCell id="jU1H_DuaYMKhVgp7lR0j-75" value="&lt;font style=&quot;font-size: 18px&quot;&gt;Order date&lt;br&gt;&lt;/font&gt;" style="ellipse;whiteSpace=wrap;html=1;" vertex="1" parent="1">
          <mxGeometry x="590" y="540" width="90" height="50" as="geometry" />
        </mxCell>
        <mxCell id="jU1H_DuaYMKhVgp7lR0j-76" value="&lt;span style=&quot;font-size: 18px&quot;&gt;Quantity&lt;br&gt;&lt;/span&gt;" style="ellipse;whiteSpace=wrap;html=1;" vertex="1" parent="1">
          <mxGeometry x="400" y="710" width="90" height="50" as="geometry" />
        </mxCell>
        <mxCell id="jU1H_DuaYMKhVgp7lR0j-77" value="&lt;font style=&quot;font-size: 18px&quot;&gt;Address&lt;/font&gt;" style="ellipse;whiteSpace=wrap;html=1;" vertex="1" parent="1">
          <mxGeometry x="916.8199999999999" y="57.5" width="90" height="50" as="geometry" />
        </mxCell>
        <mxCell id="jU1H_DuaYMKhVgp7lR0j-78" value="&lt;font style=&quot;font-size: 18px&quot;&gt;Customer ID&lt;/font&gt;" style="ellipse;whiteSpace=wrap;html=1;" vertex="1" parent="1">
          <mxGeometry x="70" y="87.5" width="90" height="50" as="geometry" />
        </mxCell>
        <mxCell id="jU1H_DuaYMKhVgp7lR0j-79" value="&lt;font style=&quot;font-size: 18px&quot;&gt;Product number&lt;/font&gt;" style="ellipse;whiteSpace=wrap;html=1;" vertex="1" parent="1">
          <mxGeometry x="1210" y="540" width="90" height="50" as="geometry" />
        </mxCell>
        <mxCell id="jU1H_DuaYMKhVgp7lR0j-80" value="&lt;font style=&quot;font-size: 18px&quot;&gt;Name&lt;/font&gt;" style="ellipse;whiteSpace=wrap;html=1;" vertex="1" parent="1">
          <mxGeometry x="180" y="70" width="80" height="40" as="geometry" />
        </mxCell>
        <mxCell id="jU1H_DuaYMKhVgp7lR0j-81" value="&lt;font style=&quot;font-size: 18px&quot;&gt;Address&lt;/font&gt;" style="ellipse;whiteSpace=wrap;html=1;" vertex="1" parent="1">
          <mxGeometry x="280" y="70" width="90" height="50" as="geometry" />
        </mxCell>
        <mxCell id="jU1H_DuaYMKhVgp7lR0j-84" value="" style="endArrow=none;html=1;entryX=0.5;entryY=1;entryDx=0;entryDy=0;exitX=0.5;exitY=0;exitDx=0;exitDy=0;" edge="1" parent="1" source="jU1H_DuaYMKhVgp7lR0j-64" target="jU1H_DuaYMKhVgp7lR0j-80">
          <mxGeometry width="50" height="50" relative="1" as="geometry">
            <mxPoint x="10" y="-5" as="sourcePoint" />
            <mxPoint x="60" y="-55" as="targetPoint" />
          </mxGeometry>
        </mxCell>
        <mxCell id="jU1H_DuaYMKhVgp7lR0j-85" value="" style="endArrow=none;html=1;entryX=0.5;entryY=1;entryDx=0;entryDy=0;exitX=0.5;exitY=0;exitDx=0;exitDy=0;" edge="1" parent="1" source="jU1H_DuaYMKhVgp7lR0j-89" target="jU1H_DuaYMKhVgp7lR0j-90">
          <mxGeometry width="50" height="50" relative="1" as="geometry">
            <mxPoint x="550" y="450" as="sourcePoint" />
            <mxPoint x="600" y="400" as="targetPoint" />
          </mxGeometry>
        </mxCell>
        <mxCell id="jU1H_DuaYMKhVgp7lR0j-86" value="" style="endArrow=none;html=1;exitX=1;exitY=0.5;exitDx=0;exitDy=0;entryX=0;entryY=0.5;entryDx=0;entryDy=0;" edge="1" parent="1" source="jU1H_DuaYMKhVgp7lR0j-64" target="jU1H_DuaYMKhVgp7lR0j-89">
          <mxGeometry width="50" height="50" relative="1" as="geometry">
            <mxPoint x="320" y="210" as="sourcePoint" />
            <mxPoint x="370" y="160" as="targetPoint" />
          </mxGeometry>
        </mxCell>
        <mxCell id="jU1H_DuaYMKhVgp7lR0j-87" value="" style="endArrow=none;html=1;exitX=1;exitY=1;exitDx=0;exitDy=0;entryX=0.5;entryY=0;entryDx=0;entryDy=0;" edge="1" parent="1" source="jU1H_DuaYMKhVgp7lR0j-78" target="jU1H_DuaYMKhVgp7lR0j-64">
          <mxGeometry width="50" height="50" relative="1" as="geometry">
            <mxPoint x="150" y="180" as="sourcePoint" />
            <mxPoint x="200" y="130" as="targetPoint" />
          </mxGeometry>
        </mxCell>
        <mxCell id="jU1H_DuaYMKhVgp7lR0j-88" value="" style="endArrow=none;html=1;entryX=0.5;entryY=1;entryDx=0;entryDy=0;exitX=0.5;exitY=0;exitDx=0;exitDy=0;" edge="1" parent="1" source="jU1H_DuaYMKhVgp7lR0j-64" target="jU1H_DuaYMKhVgp7lR0j-81">
          <mxGeometry width="50" height="50" relative="1" as="geometry">
            <mxPoint x="310" y="237.5" as="sourcePoint" />
            <mxPoint x="360" y="187.5" as="targetPoint" />
          </mxGeometry>
        </mxCell>
        <mxCell id="jU1H_DuaYMKhVgp7lR0j-89" value="&lt;font style=&quot;font-size: 18px&quot;&gt;Has&lt;/font&gt;" style="rhombus;whiteSpace=wrap;html=1;" vertex="1" parent="1">
          <mxGeometry x="560" y="187.5" width="80" height="50" as="geometry" />
        </mxCell>
        <mxCell id="jU1H_DuaYMKhVgp7lR0j-90" value="&lt;span style=&quot;font-size: 18px&quot;&gt;Online shop&lt;br&gt;&lt;/span&gt;" style="rounded=0;whiteSpace=wrap;html=1;" vertex="1" parent="1">
          <mxGeometry x="540" y="100.75" width="120" height="60" as="geometry" />
        </mxCell>
        <mxCell id="jU1H_DuaYMKhVgp7lR0j-91" value="&lt;font style=&quot;font-size: 18px&quot;&gt;Name&lt;/font&gt;" style="ellipse;whiteSpace=wrap;html=1;" vertex="1" parent="1">
          <mxGeometry x="490" y="23.25" width="80" height="40" as="geometry" />
        </mxCell>
        <mxCell id="jU1H_DuaYMKhVgp7lR0j-92" value="" style="endArrow=none;html=1;entryX=0.5;entryY=1;entryDx=0;entryDy=0;exitX=0.5;exitY=0;exitDx=0;exitDy=0;" edge="1" parent="1" source="jU1H_DuaYMKhVgp7lR0j-90" target="jU1H_DuaYMKhVgp7lR0j-91">
          <mxGeometry width="50" height="50" relative="1" as="geometry">
            <mxPoint x="215" y="159.75" as="sourcePoint" />
            <mxPoint x="215" y="79.75" as="targetPoint" />
          </mxGeometry>
        </mxCell>
        <mxCell id="jU1H_DuaYMKhVgp7lR0j-93" value="&lt;font style=&quot;font-size: 18px&quot;&gt;Contact info.&lt;/font&gt;" style="ellipse;whiteSpace=wrap;html=1;" vertex="1" parent="1">
          <mxGeometry x="640" y="18.25" width="90" height="50" as="geometry" />
        </mxCell>
        <mxCell id="jU1H_DuaYMKhVgp7lR0j-94" value="" style="endArrow=none;html=1;entryX=0.5;entryY=0;entryDx=0;entryDy=0;exitX=0.5;exitY=1;exitDx=0;exitDy=0;" edge="1" parent="1" source="jU1H_DuaYMKhVgp7lR0j-93" target="jU1H_DuaYMKhVgp7lR0j-90">
          <mxGeometry width="50" height="50" relative="1" as="geometry">
            <mxPoint x="485" y="149.75" as="sourcePoint" />
            <mxPoint x="425" y="109.75" as="targetPoint" />
          </mxGeometry>
        </mxCell>
        <mxCell id="jU1H_DuaYMKhVgp7lR0j-95" value="" style="endArrow=none;html=1;entryX=0;entryY=1;entryDx=0;entryDy=0;exitX=0.5;exitY=1;exitDx=0;exitDy=0;" edge="1" parent="1" source="jU1H_DuaYMKhVgp7lR0j-90" target="jU1H_DuaYMKhVgp7lR0j-90">
          <mxGeometry width="50" height="50" relative="1" as="geometry">
            <mxPoint x="495" y="159.75" as="sourcePoint" />
            <mxPoint x="435" y="119.75" as="targetPoint" />
          </mxGeometry>
        </mxCell>
        <mxCell id="jU1H_DuaYMKhVgp7lR0j-96" value="&lt;span style=&quot;font-size: 18px&quot;&gt;Supplier&lt;br&gt;&lt;/span&gt;" style="rounded=0;whiteSpace=wrap;html=1;" vertex="1" parent="1">
          <mxGeometry x="949.9999999999999" y="182.5" width="120" height="60" as="geometry" />
        </mxCell>
        <mxCell id="jU1H_DuaYMKhVgp7lR0j-97" value="" style="endArrow=none;html=1;exitX=1;exitY=0.5;exitDx=0;exitDy=0;entryX=0;entryY=0.5;entryDx=0;entryDy=0;" edge="1" parent="1" source="jU1H_DuaYMKhVgp7lR0j-89" target="jU1H_DuaYMKhVgp7lR0j-96">
          <mxGeometry width="50" height="50" relative="1" as="geometry">
            <mxPoint x="295" y="220" as="sourcePoint" />
            <mxPoint x="600" y="285" as="targetPoint" />
          </mxGeometry>
        </mxCell>
        <mxCell id="jU1H_DuaYMKhVgp7lR0j-98" value="&lt;font style=&quot;font-size: 18px&quot;&gt;Contact info.&lt;/font&gt;" style="ellipse;whiteSpace=wrap;html=1;" vertex="1" parent="1">
          <mxGeometry x="801.82" y="87.5" width="90" height="50" as="geometry" />
        </mxCell>
        <mxCell id="jU1H_DuaYMKhVgp7lR0j-99" value="" style="endArrow=none;html=1;entryX=0.5;entryY=0;entryDx=0;entryDy=0;exitX=1;exitY=1;exitDx=0;exitDy=0;" edge="1" parent="1" source="jU1H_DuaYMKhVgp7lR0j-98" target="jU1H_DuaYMKhVgp7lR0j-96">
          <mxGeometry width="50" height="50" relative="1" as="geometry">
            <mxPoint x="891.8199999999999" y="142.5" as="sourcePoint" />
            <mxPoint x="776.8199999999999" y="87.5" as="targetPoint" />
          </mxGeometry>
        </mxCell>
        <mxCell id="jU1H_DuaYMKhVgp7lR0j-100" value="" style="endArrow=none;html=1;entryX=0.5;entryY=0;entryDx=0;entryDy=0;exitX=0.5;exitY=1;exitDx=0;exitDy=0;" edge="1" parent="1" source="jU1H_DuaYMKhVgp7lR0j-77" target="jU1H_DuaYMKhVgp7lR0j-96">
          <mxGeometry width="50" height="50" relative="1" as="geometry">
            <mxPoint x="881.8199999999999" y="62.5" as="sourcePoint" />
            <mxPoint x="786.8199999999999" y="97.5" as="targetPoint" />
          </mxGeometry>
        </mxCell>
        <mxCell id="jU1H_DuaYMKhVgp7lR0j-101" value="&lt;font style=&quot;font-size: 18px&quot;&gt;Name&lt;/font&gt;" style="ellipse;whiteSpace=wrap;html=1;" vertex="1" parent="1">
          <mxGeometry x="1036.82" y="57.5" width="80" height="40" as="geometry" />
        </mxCell>
        <mxCell id="jU1H_DuaYMKhVgp7lR0j-102" value="" style="endArrow=none;html=1;exitX=0.5;exitY=1;exitDx=0;exitDy=0;entryX=0.5;entryY=0;entryDx=0;entryDy=0;" edge="1" parent="1" source="jU1H_DuaYMKhVgp7lR0j-101" target="jU1H_DuaYMKhVgp7lR0j-96">
          <mxGeometry width="50" height="50" relative="1" as="geometry">
            <mxPoint x="1046.82" y="117.5" as="sourcePoint" />
            <mxPoint x="1016.8199999999999" y="155.5" as="targetPoint" />
          </mxGeometry>
        </mxCell>
        <mxCell id="jU1H_DuaYMKhVgp7lR0j-103" value="" style="endArrow=none;html=1;exitX=0;exitY=1;exitDx=0;exitDy=0;entryX=0.5;entryY=0;entryDx=0;entryDy=0;" edge="1" parent="1" source="jU1H_DuaYMKhVgp7lR0j-65" target="jU1H_DuaYMKhVgp7lR0j-96">
          <mxGeometry width="50" height="50" relative="1" as="geometry">
            <mxPoint x="1140.0001948466054" y="120.17766952966372" as="sourcePoint" />
            <mxPoint x="1016.8199999999999" y="177.5" as="targetPoint" />
          </mxGeometry>
        </mxCell>
        <mxCell id="jU1H_DuaYMKhVgp7lR0j-104" value="&lt;font style=&quot;font-size: 18px&quot;&gt;Prepared&lt;/font&gt;" style="rhombus;whiteSpace=wrap;html=1;" vertex="1" parent="1">
          <mxGeometry x="955" y="330" width="110" height="60" as="geometry" />
        </mxCell>
        <mxCell id="jU1H_DuaYMKhVgp7lR0j-105" value="" style="endArrow=none;html=1;entryX=0.5;entryY=1;entryDx=0;entryDy=0;exitX=0.5;exitY=0;exitDx=0;exitDy=0;" edge="1" parent="1" source="jU1H_DuaYMKhVgp7lR0j-104" target="jU1H_DuaYMKhVgp7lR0j-96">
          <mxGeometry width="50" height="50" relative="1" as="geometry">
            <mxPoint x="640" y="260" as="sourcePoint" />
            <mxPoint x="640" y="220" as="targetPoint" />
          </mxGeometry>
        </mxCell>
        <mxCell id="jU1H_DuaYMKhVgp7lR0j-106" value="&lt;span style=&quot;font-size: 18px&quot;&gt;Ocassion&lt;br&gt;&lt;/span&gt;" style="rounded=0;whiteSpace=wrap;html=1;" vertex="1" parent="1">
          <mxGeometry x="565" y="360" width="120" height="60" as="geometry" />
        </mxCell>
        <mxCell id="jU1H_DuaYMKhVgp7lR0j-107" value="&lt;span style=&quot;font-size: 18px&quot;&gt;Select&lt;/span&gt;" style="rhombus;whiteSpace=wrap;html=1;" vertex="1" parent="1">
          <mxGeometry x="770" y="414.82" width="80" height="50" as="geometry" />
        </mxCell>
        <mxCell id="jU1H_DuaYMKhVgp7lR0j-108" value="&lt;font style=&quot;font-size: 18px&quot;&gt;Is&lt;/font&gt;" style="rhombus;whiteSpace=wrap;html=1;" vertex="1" parent="1">
          <mxGeometry x="970" y="555" width="80" height="50" as="geometry" />
        </mxCell>
        <mxCell id="jU1H_DuaYMKhVgp7lR0j-109" value="&lt;span style=&quot;font-size: 18px&quot;&gt;Product&lt;br&gt;&lt;/span&gt;" style="rounded=0;whiteSpace=wrap;html=1;" vertex="1" parent="1">
          <mxGeometry x="950" y="457.32" width="120" height="60" as="geometry" />
        </mxCell>
        <mxCell id="jU1H_DuaYMKhVgp7lR0j-110" value="" style="endArrow=none;html=1;exitX=1;exitY=0.5;exitDx=0;exitDy=0;entryX=0;entryY=0;entryDx=0;entryDy=0;" edge="1" parent="1" source="jU1H_DuaYMKhVgp7lR0j-106" target="jU1H_DuaYMKhVgp7lR0j-107">
          <mxGeometry width="50" height="50" relative="1" as="geometry">
            <mxPoint x="700" y="283" as="sourcePoint" />
            <mxPoint x="840" y="288" as="targetPoint" />
          </mxGeometry>
        </mxCell>
        <mxCell id="jU1H_DuaYMKhVgp7lR0j-111" value="" style="endArrow=none;html=1;exitX=1;exitY=1;exitDx=0;exitDy=0;entryX=0;entryY=0.5;entryDx=0;entryDy=0;" edge="1" parent="1" source="jU1H_DuaYMKhVgp7lR0j-107" target="jU1H_DuaYMKhVgp7lR0j-109">
          <mxGeometry width="50" height="50" relative="1" as="geometry">
            <mxPoint x="820" y="540" as="sourcePoint" />
            <mxPoint x="900" y="325" as="targetPoint" />
          </mxGeometry>
        </mxCell>
        <mxCell id="jU1H_DuaYMKhVgp7lR0j-112" value="&lt;span style=&quot;font-size: 18px&quot;&gt;Choose&lt;/span&gt;" style="rhombus;whiteSpace=wrap;html=1;" vertex="1" parent="1">
          <mxGeometry x="352.5" y="290" width="110" height="60" as="geometry" />
        </mxCell>
        <mxCell id="jU1H_DuaYMKhVgp7lR0j-113" value="" style="endArrow=none;html=1;exitX=0.5;exitY=1;exitDx=0;exitDy=0;entryX=0;entryY=0;entryDx=0;entryDy=0;" edge="1" parent="1" source="jU1H_DuaYMKhVgp7lR0j-64" target="jU1H_DuaYMKhVgp7lR0j-112">
          <mxGeometry width="50" height="50" relative="1" as="geometry">
            <mxPoint x="295" y="220" as="sourcePoint" />
            <mxPoint x="600" y="285" as="targetPoint" />
          </mxGeometry>
        </mxCell>
        <mxCell id="jU1H_DuaYMKhVgp7lR0j-114" value="" style="endArrow=none;html=1;exitX=1;exitY=1;exitDx=0;exitDy=0;entryX=0;entryY=0.5;entryDx=0;entryDy=0;" edge="1" parent="1" source="jU1H_DuaYMKhVgp7lR0j-112" target="jU1H_DuaYMKhVgp7lR0j-106">
          <mxGeometry width="50" height="50" relative="1" as="geometry">
            <mxPoint x="235" y="250" as="sourcePoint" />
            <mxPoint x="375" y="385" as="targetPoint" />
          </mxGeometry>
        </mxCell>
        <mxCell id="jU1H_DuaYMKhVgp7lR0j-115" value="" style="endArrow=none;html=1;exitX=1;exitY=0.5;exitDx=0;exitDy=0;entryX=0;entryY=1;entryDx=0;entryDy=0;" edge="1" parent="1" source="jU1H_DuaYMKhVgp7lR0j-109" target="jU1H_DuaYMKhVgp7lR0j-72">
          <mxGeometry width="50" height="50" relative="1" as="geometry">
            <mxPoint x="933.1800000000001" y="507.32" as="sourcePoint" />
            <mxPoint x="1181.3601948466055" y="439.9976695296637" as="targetPoint" />
          </mxGeometry>
        </mxCell>
        <mxCell id="jU1H_DuaYMKhVgp7lR0j-116" value="" style="endArrow=none;html=1;exitX=1;exitY=0.5;exitDx=0;exitDy=0;entryX=0;entryY=0.5;entryDx=0;entryDy=0;" edge="1" parent="1" source="jU1H_DuaYMKhVgp7lR0j-109" target="jU1H_DuaYMKhVgp7lR0j-71">
          <mxGeometry width="50" height="50" relative="1" as="geometry">
            <mxPoint x="1098.18" y="495.32" as="sourcePoint" />
            <mxPoint x="1190" y="520" as="targetPoint" />
          </mxGeometry>
        </mxCell>
        <mxCell id="jU1H_DuaYMKhVgp7lR0j-117" value="" style="endArrow=none;html=1;exitX=0.5;exitY=0;exitDx=0;exitDy=0;entryX=0.5;entryY=1;entryDx=0;entryDy=0;" edge="1" parent="1" source="jU1H_DuaYMKhVgp7lR0j-109" target="jU1H_DuaYMKhVgp7lR0j-104">
          <mxGeometry width="50" height="50" relative="1" as="geometry">
            <mxPoint x="1030" y="505" as="sourcePoint" />
            <mxPoint x="991.8200000000002" y="437.5" as="targetPoint" />
          </mxGeometry>
        </mxCell>
        <mxCell id="jU1H_DuaYMKhVgp7lR0j-118" value="&lt;font style=&quot;font-size: 18px&quot;&gt;Placed&lt;/font&gt;" style="rhombus;whiteSpace=wrap;html=1;" vertex="1" parent="1">
          <mxGeometry x="190" y="385" width="110" height="60" as="geometry" />
        </mxCell>
        <mxCell id="jU1H_DuaYMKhVgp7lR0j-119" value="" style="endArrow=none;html=1;exitX=0.5;exitY=1;exitDx=0;exitDy=0;entryX=0.5;entryY=0;entryDx=0;entryDy=0;" edge="1" parent="1" source="jU1H_DuaYMKhVgp7lR0j-64" target="jU1H_DuaYMKhVgp7lR0j-118">
          <mxGeometry width="50" height="50" relative="1" as="geometry">
            <mxPoint x="235" y="250" as="sourcePoint" />
            <mxPoint x="355" y="363" as="targetPoint" />
          </mxGeometry>
        </mxCell>
        <mxCell id="jU1H_DuaYMKhVgp7lR0j-120" value="&lt;span style=&quot;font-size: 18px&quot;&gt;Orders&lt;br&gt;&lt;/span&gt;" style="rounded=0;whiteSpace=wrap;html=1;" vertex="1" parent="1">
          <mxGeometry x="420" y="555" width="120" height="60" as="geometry" />
        </mxCell>
        <mxCell id="jU1H_DuaYMKhVgp7lR0j-121" value="" style="endArrow=none;html=1;exitX=0.5;exitY=1;exitDx=0;exitDy=0;entryX=0.5;entryY=0;entryDx=0;entryDy=0;" edge="1" parent="1" source="jU1H_DuaYMKhVgp7lR0j-118" target="jU1H_DuaYMKhVgp7lR0j-120">
          <mxGeometry width="50" height="50" relative="1" as="geometry">
            <mxPoint x="235" y="250" as="sourcePoint" />
            <mxPoint x="230" y="360" as="targetPoint" />
          </mxGeometry>
        </mxCell>
        <mxCell id="jU1H_DuaYMKhVgp7lR0j-122" value="&lt;font style=&quot;font-size: 18px&quot;&gt;Customer ID&lt;/font&gt;" style="ellipse;whiteSpace=wrap;html=1;" vertex="1" parent="1">
          <mxGeometry x="262.5" y="605" width="90" height="50" as="geometry" />
        </mxCell>
        <mxCell id="jU1H_DuaYMKhVgp7lR0j-123" value="" style="endArrow=none;html=1;exitX=1;exitY=0.5;exitDx=0;exitDy=0;entryX=0;entryY=0.5;entryDx=0;entryDy=0;" edge="1" parent="1" source="jU1H_DuaYMKhVgp7lR0j-122" target="jU1H_DuaYMKhVgp7lR0j-120">
          <mxGeometry width="50" height="50" relative="1" as="geometry">
            <mxPoint x="340" y="170" as="sourcePoint" />
            <mxPoint x="400" y="190" as="targetPoint" />
          </mxGeometry>
        </mxCell>
        <mxCell id="jU1H_DuaYMKhVgp7lR0j-124" value="" style="endArrow=none;html=1;exitX=1;exitY=0.5;exitDx=0;exitDy=0;entryX=0;entryY=1;entryDx=0;entryDy=0;" edge="1" parent="1" source="jU1H_DuaYMKhVgp7lR0j-74" target="jU1H_DuaYMKhVgp7lR0j-120">
          <mxGeometry width="50" height="50" relative="1" as="geometry">
            <mxPoint x="317.5" y="405" as="sourcePoint" />
            <mxPoint x="370" y="435" as="targetPoint" />
          </mxGeometry>
        </mxCell>
        <mxCell id="jU1H_DuaYMKhVgp7lR0j-125" value="" style="endArrow=none;html=1;exitX=1;exitY=0.5;exitDx=0;exitDy=0;entryX=0;entryY=0.5;entryDx=0;entryDy=0;" edge="1" parent="1" source="jU1H_DuaYMKhVgp7lR0j-120" target="jU1H_DuaYMKhVgp7lR0j-75">
          <mxGeometry width="50" height="50" relative="1" as="geometry">
            <mxPoint x="310" y="442" as="sourcePoint" />
            <mxPoint x="370" y="435" as="targetPoint" />
          </mxGeometry>
        </mxCell>
        <mxCell id="jU1H_DuaYMKhVgp7lR0j-126" value="&lt;span style=&quot;font-size: 18px&quot;&gt;Gift&lt;br&gt;&lt;/span&gt;" style="rounded=0;whiteSpace=wrap;html=1;" vertex="1" parent="1">
          <mxGeometry x="950" y="635" width="120" height="60" as="geometry" />
        </mxCell>
        <mxCell id="jU1H_DuaYMKhVgp7lR0j-127" value="" style="endArrow=none;html=1;exitX=0.5;exitY=0;exitDx=0;exitDy=0;entryX=0.5;entryY=1;entryDx=0;entryDy=0;" edge="1" parent="1" source="jU1H_DuaYMKhVgp7lR0j-108" target="jU1H_DuaYMKhVgp7lR0j-109">
          <mxGeometry width="50" height="50" relative="1" as="geometry">
            <mxPoint x="1010.0000000000002" y="567.32" as="sourcePoint" />
            <mxPoint x="828.1800000000001" y="472.32" as="targetPoint" />
          </mxGeometry>
        </mxCell>
        <mxCell id="jU1H_DuaYMKhVgp7lR0j-128" value="" style="endArrow=none;html=1;exitX=0.5;exitY=1;exitDx=0;exitDy=0;entryX=0.5;entryY=0;entryDx=0;entryDy=0;" edge="1" parent="1" source="jU1H_DuaYMKhVgp7lR0j-108" target="jU1H_DuaYMKhVgp7lR0j-126">
          <mxGeometry width="50" height="50" relative="1" as="geometry">
            <mxPoint x="890" y="575" as="sourcePoint" />
            <mxPoint x="961.8200000000002" y="520" as="targetPoint" />
          </mxGeometry>
        </mxCell>
        <mxCell id="jU1H_DuaYMKhVgp7lR0j-129" value="&lt;font style=&quot;font-size: 18px&quot;&gt;Descriptions&lt;/font&gt;" style="ellipse;whiteSpace=wrap;html=1;" vertex="1" parent="1">
          <mxGeometry x="565" y="464.82" width="110" height="45" as="geometry" />
        </mxCell>
        <mxCell id="jU1H_DuaYMKhVgp7lR0j-130" value="" style="endArrow=none;html=1;entryX=0.5;entryY=1;entryDx=0;entryDy=0;exitX=0.5;exitY=0;exitDx=0;exitDy=0;" edge="1" parent="1" source="jU1H_DuaYMKhVgp7lR0j-129" target="jU1H_DuaYMKhVgp7lR0j-106">
          <mxGeometry width="50" height="50" relative="1" as="geometry">
            <mxPoint x="1021.8200000000002" y="490" as="sourcePoint" />
            <mxPoint x="1130" y="497.5" as="targetPoint" />
          </mxGeometry>
        </mxCell>
        <mxCell id="jU1H_DuaYMKhVgp7lR0j-131" value="" style="endArrow=none;html=1;exitX=0.5;exitY=0;exitDx=0;exitDy=0;entryX=0.5;entryY=1;entryDx=0;entryDy=0;" edge="1" parent="1" source="jU1H_DuaYMKhVgp7lR0j-76" target="jU1H_DuaYMKhVgp7lR0j-120">
          <mxGeometry width="50" height="50" relative="1" as="geometry">
            <mxPoint x="310" y="442" as="sourcePoint" />
            <mxPoint x="370" y="435" as="targetPoint" />
          </mxGeometry>
        </mxCell>
        <mxCell id="jU1H_DuaYMKhVgp7lR0j-132" value="&lt;span style=&quot;font-size: 18px&quot;&gt;Choose&lt;/span&gt;" style="rhombus;whiteSpace=wrap;html=1;" vertex="1" parent="1">
          <mxGeometry x="60" y="302.5" width="110" height="60" as="geometry" />
        </mxCell>
        <mxCell id="jU1H_DuaYMKhVgp7lR0j-133" value="" style="endArrow=none;html=1;exitX=0.5;exitY=1;exitDx=0;exitDy=0;entryX=0.5;entryY=0;entryDx=0;entryDy=0;" edge="1" parent="1" source="jU1H_DuaYMKhVgp7lR0j-64" target="jU1H_DuaYMKhVgp7lR0j-132">
          <mxGeometry width="50" height="50" relative="1" as="geometry">
            <mxPoint x="235" y="250" as="sourcePoint" />
            <mxPoint x="370" y="350" as="targetPoint" />
          </mxGeometry>
        </mxCell>
        <mxCell id="jU1H_DuaYMKhVgp7lR0j-134" value="&lt;span style=&quot;font-size: 18px&quot;&gt;Delivery Option&lt;br&gt;&lt;/span&gt;" style="rounded=0;whiteSpace=wrap;html=1;" vertex="1" parent="1">
          <mxGeometry x="30" y="420" width="120" height="60" as="geometry" />
        </mxCell>
        <mxCell id="jU1H_DuaYMKhVgp7lR0j-135" value="" style="endArrow=none;html=1;exitX=0.5;exitY=1;exitDx=0;exitDy=0;entryX=0.5;entryY=0;entryDx=0;entryDy=0;" edge="1" parent="1" source="jU1H_DuaYMKhVgp7lR0j-132" target="jU1H_DuaYMKhVgp7lR0j-134">
          <mxGeometry width="50" height="50" relative="1" as="geometry">
            <mxPoint x="235" y="250" as="sourcePoint" />
            <mxPoint x="230" y="400" as="targetPoint" />
          </mxGeometry>
        </mxCell>
        <mxCell id="jU1H_DuaYMKhVgp7lR0j-136" value="" style="endArrow=none;html=1;exitX=0.5;exitY=1;exitDx=0;exitDy=0;entryX=0.5;entryY=0;entryDx=0;entryDy=0;" edge="1" parent="1" source="jU1H_DuaYMKhVgp7lR0j-134" target="jU1H_DuaYMKhVgp7lR0j-70">
          <mxGeometry width="50" height="50" relative="1" as="geometry">
            <mxPoint x="125" y="372.5" as="sourcePoint" />
            <mxPoint x="100" y="430" as="targetPoint" />
          </mxGeometry>
        </mxCell>
        <mxCell id="jU1H_DuaYMKhVgp7lR0j-137" value="" style="endArrow=none;html=1;exitX=0.5;exitY=0;exitDx=0;exitDy=0;entryX=0.5;entryY=1;entryDx=0;entryDy=0;" edge="1" parent="1" source="jU1H_DuaYMKhVgp7lR0j-68" target="jU1H_DuaYMKhVgp7lR0j-134">
          <mxGeometry width="50" height="50" relative="1" as="geometry">
            <mxPoint x="135" y="382.5" as="sourcePoint" />
            <mxPoint x="110" y="440" as="targetPoint" />
          </mxGeometry>
        </mxCell>
        <mxCell id="jU1H_DuaYMKhVgp7lR0j-138" value="" style="endArrow=none;html=1;exitX=1;exitY=0.5;exitDx=0;exitDy=0;entryX=0;entryY=0.5;entryDx=0;entryDy=0;" edge="1" parent="1" source="jU1H_DuaYMKhVgp7lR0j-109" target="jU1H_DuaYMKhVgp7lR0j-79">
          <mxGeometry width="50" height="50" relative="1" as="geometry">
            <mxPoint x="1080" y="497.31999999999994" as="sourcePoint" />
            <mxPoint x="1210" y="512.5" as="targetPoint" />
          </mxGeometry>
        </mxCell>
      </root>
    </mxGraphModel>
  </diagram>
</mxfile>
